<svg version="1.1" xmlns="http://www.w3.org/2000/svg" viewBox="0 0 2616.172619047619 1234.5476190476193" width="2616.172619047619" height="1234.5476190476193" filter="invert(93%) hue-rotate(180deg)">
  <!-- svg-source:excalidraw -->
  
  <defs>
    <style>
      @font-face {
        font-family: "Virgil";
        src: url("https://excalidraw.com/Virgil.woff2");
      }
      @font-face {
        font-family: "Cascadia";
        src: url("https://excalidraw.com/Cascadia.woff2");
      }
    </style>
  </defs>
  <rect x="0" y="0" width="2616.172619047619" height="1234.5476190476193" fill="#ffffff"></rect><g transform="translate(10 10) rotate(0 651 180)"><text x="0" y="19" font-family="Cascadia, Segoe UI Emoji" font-size="20px" fill="#000000" text-anchor="start" style="white-space: pre;" direction="ltr">    Priemira forma</text><text x="0" y="43" font-family="Cascadia, Segoe UI Emoji" font-size="20px" fill="#000000" text-anchor="start" style="white-space: pre;" direction="ltr"></text><text x="0" y="67" font-family="Cascadia, Segoe UI Emoji" font-size="20px" fill="#000000" text-anchor="start" style="white-space: pre;" direction="ltr">* Colunas devem possuir apenas um valor</text><text x="0" y="91" font-family="Cascadia, Segoe UI Emoji" font-size="20px" fill="#000000" text-anchor="start" style="white-space: pre;" direction="ltr">* Valores em uma coluna devem ser do mesmo tipo de dados</text><text x="0" y="115" font-family="Cascadia, Segoe UI Emoji" font-size="20px" fill="#000000" text-anchor="start" style="white-space: pre;" direction="ltr">* Cada coluna deve possuir um nome único</text><text x="0" y="139" font-family="Cascadia, Segoe UI Emoji" font-size="20px" fill="#000000" text-anchor="start" style="white-space: pre;" direction="ltr">* A ordem dos dados registrados em uma tabela não deve afetar a integridade dos dados</text><text x="0" y="163" font-family="Cascadia, Segoe UI Emoji" font-size="20px" fill="#000000" text-anchor="start" style="white-space: pre;" direction="ltr"></text><text x="0" y="187" font-family="Cascadia, Segoe UI Emoji" font-size="20px" fill="#000000" text-anchor="start" style="white-space: pre;" direction="ltr">    Segunda forma</text><text x="0" y="211" font-family="Cascadia, Segoe UI Emoji" font-size="20px" fill="#000000" text-anchor="start" style="white-space: pre;" direction="ltr"></text><text x="0" y="235" font-family="Cascadia, Segoe UI Emoji" font-size="20px" fill="#000000" text-anchor="start" style="white-space: pre;" direction="ltr">* A tabela deve estar na 1ª Forma Normal</text><text x="0" y="259" font-family="Cascadia, Segoe UI Emoji" font-size="20px" fill="#000000" text-anchor="start" style="white-space: pre;" direction="ltr">* A tabela não deve possuir dependências parciais.</text><text x="0" y="283" font-family="Cascadia, Segoe UI Emoji" font-size="20px" fill="#000000" text-anchor="start" style="white-space: pre;" direction="ltr"></text><text x="0" y="307" font-family="Cascadia, Segoe UI Emoji" font-size="20px" fill="#000000" text-anchor="start" style="white-space: pre;" direction="ltr">    Terceira forma</text><text x="0" y="331" font-family="Cascadia, Segoe UI Emoji" font-size="20px" fill="#000000" text-anchor="start" style="white-space: pre;" direction="ltr">* A tabela deve estar na 1ª e 2ª Formas Normais.</text><text x="0" y="355" font-family="Cascadia, Segoe UI Emoji" font-size="20px" fill="#000000" text-anchor="start" style="white-space: pre;" direction="ltr">* A tabela não deve conter atributos (colunas) que não sejam dependentes exclusivamente da PK (chave primária).</text></g><g transform="translate(157.3333333333336 561.9047619047617) rotate(0 445.5 192)"><text x="0" y="19" font-family="Cascadia, Segoe UI Emoji" font-size="20px" fill="#000000" text-anchor="start" style="white-space: pre;" direction="ltr">{</text><text x="0" y="43" font-family="Cascadia, Segoe UI Emoji" font-size="20px" fill="#000000" text-anchor="start" style="white-space: pre;" direction="ltr">  "coluna_usuario": "usuario_id",</text><text x="0" y="67" font-family="Cascadia, Segoe UI Emoji" font-size="20px" fill="#000000" text-anchor="start" style="white-space: pre;" direction="ltr">  "tabela_que_contem_usuario": "usuarios",</text><text x="0" y="91" font-family="Cascadia, Segoe UI Emoji" font-size="20px" fill="#000000" text-anchor="start" style="white-space: pre;" direction="ltr">  "coluna_plano": "plano",</text><text x="0" y="115" font-family="Cascadia, Segoe UI Emoji" font-size="20px" fill="#000000" text-anchor="start" style="white-space: pre;" direction="ltr">  "tabela_que_contem_plano": "planos",</text><text x="0" y="139" font-family="Cascadia, Segoe UI Emoji" font-size="20px" fill="#000000" text-anchor="start" style="white-space: pre;" direction="ltr">  "coluna_historico_de_reproducoes": "historico_de_reproducao_id",</text><text x="0" y="163" font-family="Cascadia, Segoe UI Emoji" font-size="20px" fill="#000000" text-anchor="start" style="white-space: pre;" direction="ltr">  "tabela_que_contem_historico_de_reproducoes": "historicos_de_reproducoes",</text><text x="0" y="187" font-family="Cascadia, Segoe UI Emoji" font-size="20px" fill="#000000" text-anchor="start" style="white-space: pre;" direction="ltr">  "coluna_seguindo_artistas": "seguindo_artistas_id",</text><text x="0" y="211" font-family="Cascadia, Segoe UI Emoji" font-size="20px" fill="#000000" text-anchor="start" style="white-space: pre;" direction="ltr">  "tabela_que_contem_seguindo_artistas": "seguindo_artistas",</text><text x="0" y="235" font-family="Cascadia, Segoe UI Emoji" font-size="20px" fill="#000000" text-anchor="start" style="white-space: pre;" direction="ltr">  "coluna_artista": "artista",</text><text x="0" y="259" font-family="Cascadia, Segoe UI Emoji" font-size="20px" fill="#000000" text-anchor="start" style="white-space: pre;" direction="ltr">  "tabela_que_contem_artista": "artistas",</text><text x="0" y="283" font-family="Cascadia, Segoe UI Emoji" font-size="20px" fill="#000000" text-anchor="start" style="white-space: pre;" direction="ltr">  "coluna_album": "album",</text><text x="0" y="307" font-family="Cascadia, Segoe UI Emoji" font-size="20px" fill="#000000" text-anchor="start" style="white-space: pre;" direction="ltr">  "tabela_que_contem_album": "albums",</text><text x="0" y="331" font-family="Cascadia, Segoe UI Emoji" font-size="20px" fill="#000000" text-anchor="start" style="white-space: pre;" direction="ltr">  "coluna_cancoes": "cancao",</text><text x="0" y="355" font-family="Cascadia, Segoe UI Emoji" font-size="20px" fill="#000000" text-anchor="start" style="white-space: pre;" direction="ltr">  "tabela_que_contem_cancoes": "cancoes"</text><text x="0" y="379" font-family="Cascadia, Segoe UI Emoji" font-size="20px" fill="#000000" text-anchor="start" style="white-space: pre;" direction="ltr">}</text></g><g stroke-linecap="round" transform="translate(1354.1904761904761 308.8214285714284) rotate(0 123.5 160.5)"><path d="M0 0 C67.49 0, 134.98 0, 247 0 M0 0 C55.23 0, 110.45 0, 247 0 M247 0 C247 113.12, 247 226.23, 247 321 M247 0 C247 90.91, 247 181.82, 247 321 M247 321 C163.12 321, 79.23 321, 0 321 M247 321 C170.21 321, 93.43 321, 0 321 M0 321 C0 251.51, 0 182.02, 0 0 M0 321 C0 234.62, 0 148.24, 0 0" stroke="#000000" stroke-width="1" fill="none"></path></g><g stroke-linecap="round" transform="translate(1354.1904761904761 308.8214285714284) rotate(0 123 24)"><path d="M0 0 C50.15 0, 100.3 0, 246 0 M0 0 C64.36 0, 128.71 0, 246 0 M246 0 C246 16.01, 246 32.03, 246 48 M246 0 C246 17.74, 246 35.47, 246 48 M246 48 C165.6 48, 85.2 48, 0 48 M246 48 C159.61 48, 73.22 48, 0 48 M0 48 C0 32.06, 0 16.11, 0 0 M0 48 C0 31.8, 0 15.61, 0 0" stroke="#000000" stroke-width="1" fill="none"></path></g><g transform="translate(1433.1904761904761 318.8214285714284) rotate(0 47.5 12)"><text x="0" y="19" font-family="Cascadia, Segoe UI Emoji" font-size="20px" fill="#d9480f" text-anchor="start" style="white-space: pre;" direction="ltr">usuarios</text></g><g transform="translate(1420.1904761904761 380.488095238095) rotate(0 59 12)"><text x="0" y="19" font-family="Cascadia, Segoe UI Emoji" font-size="20px" fill="#2b8a3e" text-anchor="start" style="white-space: pre;" direction="ltr">usuario_id</text></g><g transform="translate(1432.2738095238096 528.3214285714284) rotate(0 41.5 12)"><text x="0" y="19" font-family="Cascadia, Segoe UI Emoji" font-size="20px" fill="#000000" text-anchor="start" style="white-space: pre;" direction="ltr">usuario</text></g><g transform="translate(1444.1904761904761 576.4880952380952) rotate(0 30 12)"><text x="0" y="19" font-family="Cascadia, Segoe UI Emoji" font-size="20px" fill="#000000" text-anchor="start" style="white-space: pre;" direction="ltr">idade</text></g><g stroke-linecap="round" transform="translate(1817.261904761905 108.60714285714295) rotate(0 123.5 160.5)"><path d="M0 0 C91.63 0, 183.27 0, 247 0 M0 0 C75.05 0, 150.1 0, 247 0 M247 0 C247 71.31, 247 142.62, 247 321 M247 0 C247 125.04, 247 250.09, 247 321 M247 321 C186.8 321, 126.6 321, 0 321 M247 321 C188.57 321, 130.15 321, 0 321 M0 321 C0 241.29, 0 161.58, 0 0 M0 321 C0 219.27, 0 117.55, 0 0" stroke="#000000" stroke-width="1" fill="none"></path></g><g stroke-linecap="round" transform="translate(1817.261904761905 108.60714285714295) rotate(0 123 24)"><path d="M0 0 C94.07 0, 188.14 0, 246 0 M0 0 C65.08 0, 130.16 0, 246 0 M246 0 C246 11.27, 246 22.54, 246 48 M246 0 C246 19.01, 246 38.02, 246 48 M246 48 C151.22 48, 56.43 48, 0 48 M246 48 C165.37 48, 84.74 48, 0 48 M0 48 C0 29.73, 0 11.46, 0 0 M0 48 C0 34.17, 0 20.34, 0 0" stroke="#000000" stroke-width="1" fill="none"></path></g><g transform="translate(1909.261904761905 118.60714285714295) rotate(0 35.5 12)"><text x="0" y="19" font-family="Cascadia, Segoe UI Emoji" font-size="20px" fill="#d9480f" text-anchor="start" style="white-space: pre;" direction="ltr">planos</text></g><g transform="translate(1896.928571428571 204.60714285714295) rotate(0 47.5 12)"><text x="0" y="19" font-family="Cascadia, Segoe UI Emoji" font-size="20px" fill="#2b8a3e" text-anchor="start" style="white-space: pre;" direction="ltr">plano_id</text></g><g transform="translate(1908.5952380952385 269.9404761904761) rotate(0 30 12)"><text x="0" y="19" font-family="Cascadia, Segoe UI Emoji" font-size="20px" fill="#000000" text-anchor="start" style="white-space: pre;" direction="ltr">plano</text></g><g transform="translate(1909.5952380952385 332.9404761904763) rotate(0 30 12)"><text x="0" y="19" font-family="Cascadia, Segoe UI Emoji" font-size="20px" fill="#000000" text-anchor="start" style="white-space: pre;" direction="ltr">valor</text></g><g stroke-linecap="round" transform="translate(1304.5476190476193 696.4999999999999) rotate(0 169.625 160.5)"><path d="M0 0 C129.92 0, 259.84 0, 339.25 0 M0 0 C83.98 0, 167.96 0, 339.25 0 M339.25 0 C339.25 67.97, 339.25 135.94, 339.25 321 M339.25 0 C339.25 127.71, 339.25 255.42, 339.25 321 M339.25 321 C209.86 321, 80.48 321, 0 321 M339.25 321 C266.78 321, 194.31 321, 0 321 M0 321 C0 245.08, 0 169.16, 0 0 M0 321 C0 201.46, 0 81.92, 0 0" stroke="#000000" stroke-width="1" fill="none"></path></g><g stroke-linecap="round" transform="translate(1305.7976190476193 697.7499999999999) rotate(0 168.5 22.75)"><path d="M0 0 C86.07 0, 172.13 0, 337 0 M0 0 C126.38 0, 252.75 0, 337 0 M337 0 C337 9.11, 337 18.22, 337 45.5 M337 0 C337 11, 337 21.99, 337 45.5 M337 45.5 C225.96 45.5, 114.92 45.5, 0 45.5 M337 45.5 C221.02 45.5, 105.04 45.5, 0 45.5 M0 45.5 C0 29.11, 0 12.72, 0 0 M0 45.5 C0 35.21, 0 24.92, 0 0" stroke="#000000" stroke-width="1" fill="none"></path></g><g transform="translate(1327.5476190476193 706.4999999999999) rotate(0 147 12)"><text x="0" y="19" font-family="Cascadia, Segoe UI Emoji" font-size="20px" fill="#d9480f" text-anchor="start" style="white-space: pre;" direction="ltr">historicos_de_reproducoes</text></g><g transform="translate(1325.2976190476193 774.1666666666666) rotate(0 153 12)"><text x="0" y="19" font-family="Cascadia, Segoe UI Emoji" font-size="20px" fill="#2b8a3e" text-anchor="start" style="white-space: pre;" direction="ltr">historico_de_reproducao_id</text></g><g transform="translate(1418.5476190476193 840.4999999999999) rotate(0 59 12)"><text x="0" y="19" font-family="Cascadia, Segoe UI Emoji" font-size="20px" fill="#c92a2a" text-anchor="start" style="white-space: pre;" direction="ltr">usuario_id</text></g><g transform="translate(1421.7976190476193 906.4999999999999) rotate(0 53 12)"><text x="0" y="19" font-family="Cascadia, Segoe UI Emoji" font-size="20px" fill="#c92a2a" text-anchor="start" style="white-space: pre;" direction="ltr">cancao_id</text></g><g stroke-linecap="round"><g transform="translate(1610.9642857142853 388.2142857142859) rotate(0 98.80952380952397 -54.166666666666686)"><path d="M0 0 C72.42 -39.7, 144.84 -79.4, 197.62 -108.33" stroke="#0b7285" stroke-width="2.5" fill="none" stroke-dasharray="8 10"></path></g></g><g stroke-linecap="round"><g transform="translate(1468.5833333333335 633.0714285714287) rotate(0 0 30)"><path d="M0 0 C0 14.15, 0 28.3, 0 60" stroke="#0b7285" stroke-width="2.5" fill="none" stroke-dasharray="8 10"></path></g></g><g stroke-linecap="round" transform="translate(1774.1011904761904 903.5476190476192) rotate(0 169.625 160.5)"><path d="M0 0 C101.19 0, 202.39 0, 339.25 0 M0 0 C120.14 0, 240.28 0, 339.25 0 M339.25 0 C339.25 122.91, 339.25 245.82, 339.25 321 M339.25 0 C339.25 99.96, 339.25 199.91, 339.25 321 M339.25 321 C209.84 321, 80.43 321, 0 321 M339.25 321 C249.18 321, 159.1 321, 0 321 M0 321 C0 224.63, 0 128.26, 0 0 M0 321 C0 223.01, 0 125.02, 0 0" stroke="#000000" stroke-width="1" fill="none"></path></g><g stroke-linecap="round" transform="translate(1775.3511904761904 904.7976190476192) rotate(0 169.375 22.75)"><path d="M0 0 C114.2 0, 228.41 0, 338.75 0 M0 0 C135.07 0, 270.14 0, 338.75 0 M338.75 0 C338.75 13.94, 338.75 27.87, 338.75 45.5 M338.75 0 C338.75 18.05, 338.75 36.1, 338.75 45.5 M338.75 45.5 C233.45 45.5, 128.15 45.5, 0 45.5 M338.75 45.5 C244.49 45.5, 150.23 45.5, 0 45.5 M0 45.5 C0 29.58, 0 13.66, 0 0 M0 45.5 C0 30.39, 0 15.28, 0 0" stroke="#000000" stroke-width="1" fill="none"></path></g><g transform="translate(1902.1011904761904 914.7976190476192) rotate(0 41.5 12)"><text x="0" y="19" font-family="Cascadia, Segoe UI Emoji" font-size="20px" fill="#d9480f" text-anchor="start" style="white-space: pre;" direction="ltr">cancoes</text></g><g transform="translate(1888.2440476190473 974.7261904761905) rotate(0 53 12)"><text x="0" y="19" font-family="Cascadia, Segoe UI Emoji" font-size="20px" fill="#2b8a3e" text-anchor="start" style="white-space: pre;" direction="ltr">cancao_id</text></g><g transform="translate(1881.3154761904757 1029.3333333333335) rotate(0 59 12)"><text x="0" y="19" font-family="Cascadia, Segoe UI Emoji" font-size="20px" fill="#c92a2a" text-anchor="start" style="white-space: pre;" direction="ltr">artista_id</text></g><g transform="translate(1899.7440476190473 1088.7261904761904) rotate(0 35.5 12)"><text x="0" y="19" font-family="Cascadia, Segoe UI Emoji" font-size="20px" fill="#000000" text-anchor="start" style="white-space: pre;" direction="ltr">cancao</text></g><g stroke-linecap="round" transform="translate(2266.172619047619 325.9285714285714) rotate(0 169.625 160.5)"><path d="M0 0 C124.13 0, 248.25 0, 339.25 0 M0 0 C92.16 0, 184.32 0, 339.25 0 M339.25 0 C339.25 81.94, 339.25 163.88, 339.25 321 M339.25 0 C339.25 93.19, 339.25 186.37, 339.25 321 M339.25 321 C236.75 321, 134.26 321, 0 321 M339.25 321 C207.64 321, 76.03 321, 0 321 M0 321 C0 250.65, 0 180.29, 0 0 M0 321 C0 254.78, 0 188.55, 0 0" stroke="#000000" stroke-width="1" fill="none"></path></g><g stroke-linecap="round" transform="translate(2267.422619047619 327.1785714285714) rotate(0 169.375 22.75)"><path d="M0 0 C78.21 0, 156.41 0, 338.75 0 M0 0 C103.19 0, 206.38 0, 338.75 0 M338.75 0 C338.75 17.44, 338.75 34.88, 338.75 45.5 M338.75 0 C338.75 13.37, 338.75 26.75, 338.75 45.5 M338.75 45.5 C231.85 45.5, 124.94 45.5, 0 45.5 M338.75 45.5 C238.77 45.5, 138.78 45.5, 0 45.5 M0 45.5 C0 34.2, 0 22.89, 0 0 M0 45.5 C0 33.4, 0 21.31, 0 0" stroke="#000000" stroke-width="1" fill="none"></path></g><g transform="translate(2392.922619047619 337.1785714285714) rotate(0 47.5 12)"><text x="0" y="19" font-family="Cascadia, Segoe UI Emoji" font-size="20px" fill="#d9480f" text-anchor="start" style="white-space: pre;" direction="ltr">artistas</text></g><g transform="translate(2374.8392857142853 406.51190476190476) rotate(0 59 12)"><text x="0" y="19" font-family="Cascadia, Segoe UI Emoji" font-size="20px" fill="#2b8a3e" text-anchor="start" style="white-space: pre;" direction="ltr">artista_id</text></g><g transform="translate(2392.1726190476193 503.01190476190465) rotate(0 41.5 12)"><text x="0" y="19" font-family="Cascadia, Segoe UI Emoji" font-size="20px" fill="#000000" text-anchor="start" style="white-space: pre;" direction="ltr">artista</text></g><g transform="translate(1374.2976190476193 970.5000000000001) rotate(0 106 12)"><text x="0" y="19" font-family="Cascadia, Segoe UI Emoji" font-size="20px" fill="#000000" text-anchor="start" style="white-space: pre;" direction="ltr">data_de_reproducao</text></g><g transform="translate(1794.9523809523807 1150.6785714285716) rotate(0 147 12)"><text x="0" y="19" font-family="Cascadia, Segoe UI Emoji" font-size="20px" fill="#000000" text-anchor="start" style="white-space: pre;" direction="ltr">duracao_segundos(minutos)</text></g><g stroke-linecap="round" transform="translate(2257.077380952382 705.0238095238095) rotate(0 169.625 160.5)"><path d="M0 0 C124.66 0, 249.33 0, 339.25 0 M0 0 C74.64 0, 149.28 0, 339.25 0 M339.25 0 C339.25 69.69, 339.25 139.38, 339.25 321 M339.25 0 C339.25 71.25, 339.25 142.51, 339.25 321 M339.25 321 C235.76 321, 132.26 321, 0 321 M339.25 321 C207.48 321, 75.71 321, 0 321 M0 321 C0 218.52, 0 116.04, 0 0 M0 321 C0 210.18, 0 99.36, 0 0" stroke="#000000" stroke-width="1" fill="none"></path></g><g stroke-linecap="round" transform="translate(2258.327380952382 704.6071428571429) rotate(0 169.375 22.75)"><path d="M0 0 C132.37 0, 264.73 0, 338.75 0 M0 0 C100.47 0, 200.94 0, 338.75 0 M338.75 0 C338.75 11.03, 338.75 22.06, 338.75 45.5 M338.75 0 C338.75 15.27, 338.75 30.53, 338.75 45.5 M338.75 45.5 C219.23 45.5, 99.71 45.5, 0 45.5 M338.75 45.5 C206.85 45.5, 74.94 45.5, 0 45.5 M0 45.5 C0 27.49, 0 9.48, 0 0 M0 45.5 C0 29.41, 0 13.33, 0 0" stroke="#000000" stroke-width="1" fill="none"></path></g><g transform="translate(2386.7440476190486 714.6071428571429) rotate(0 35.5 12)"><text x="0" y="19" font-family="Cascadia, Segoe UI Emoji" font-size="20px" fill="#d9480f" text-anchor="start" style="white-space: pre;" direction="ltr">albums</text></g><g transform="translate(2372.6845238095243 815.75) rotate(0 53 12)"><text x="0" y="19" font-family="Cascadia, Segoe UI Emoji" font-size="20px" fill="#c92a2a" text-anchor="start" style="white-space: pre;" direction="ltr">cancao_id</text></g><g transform="translate(2370.775793650794 864.6825396825396) rotate(0 59 12)"><text x="0" y="19" font-family="Cascadia, Segoe UI Emoji" font-size="20px" fill="#c92a2a" text-anchor="start" style="white-space: pre;" direction="ltr">artista_id</text></g><g transform="translate(2393.521103896105 919.778499278499) rotate(0 30 12)"><text x="0" y="19" font-family="Cascadia, Segoe UI Emoji" font-size="20px" fill="#000000" text-anchor="start" style="white-space: pre;" direction="ltr">album</text></g><g transform="translate(2377.665945165946 762.603896103896) rotate(0 47.5 12)"><text x="0" y="19" font-family="Cascadia, Segoe UI Emoji" font-size="20px" fill="#2b8a3e" text-anchor="start" style="white-space: pre;" direction="ltr">album_id</text></g><g stroke-linecap="round"><g transform="translate(1767.5607864357867 1073.7507215007213) rotate(0 -59.285714285714334 -67.857142857143)"><path d="M0 0 C-19.76 -22.62, -98.81 -113.1, -118.57 -135.71" stroke="#0b7285" stroke-width="2.5" fill="none" stroke-dasharray="8 10"></path></g></g><g stroke-linecap="round"><g transform="translate(2251.3703102453105 943.2745310245308) rotate(0 -65.35714285714334 79.28571428571422)"><path d="M0 0 C-21.79 26.43, -108.93 132.14, -130.71 158.57" stroke="#0b7285" stroke-width="2.5" fill="none" stroke-dasharray="8 10"></path></g></g><g stroke-linecap="round"><g transform="translate(2422.9179292929293 694.3459595959587) rotate(0 0.4761904761905953 -25.714285714285808)"><path d="M0 0 C0.16 -8.57, 0.79 -42.86, 0.95 -51.43" stroke="#0b7285" stroke-width="2.5" fill="none" stroke-dasharray="8 10"></path></g></g><g stroke-linecap="round" transform="translate(1772.5607864357867 495.6316738816731) rotate(0 169.625 160.5)"><path d="M0 0 C97.09 0, 194.18 0, 339.25 0 M0 0 C131.73 0, 263.46 0, 339.25 0 M339.25 0 C339.25 100.33, 339.25 200.65, 339.25 321 M339.25 0 C339.25 114.38, 339.25 228.76, 339.25 321 M339.25 321 C230.6 321, 121.94 321, 0 321 M339.25 321 C264.75 321, 190.26 321, 0 321 M0 321 C0 228.43, 0 135.85, 0 0 M0 321 C0 233.92, 0 146.84, 0 0" stroke="#000000" stroke-width="1" fill="none"></path></g><g stroke-linecap="round" transform="translate(1773.8107864357867 496.8816738816731) rotate(0 169.5 22.75)"><path d="M0 0 C99.56 0, 199.12 0, 339 0 M0 0 C81.93 0, 163.85 0, 339 0 M339 0 C339 17.86, 339 35.73, 339 45.5 M339 0 C339 12.63, 339 25.25, 339 45.5 M339 45.5 C263.58 45.5, 188.17 45.5, 0 45.5 M339 45.5 C230.86 45.5, 122.71 45.5, 0 45.5 M0 45.5 C0 28.42, 0 11.34, 0 0 M0 45.5 C0 27.57, 0 9.64, 0 0" stroke="#000000" stroke-width="1" fill="none"></path></g><g transform="translate(1854.3107864357867 506.8816738816731) rotate(0 100 12)"><text x="0" y="19" font-family="Cascadia, Segoe UI Emoji" font-size="20px" fill="#d9480f" text-anchor="start" style="white-space: pre;" direction="ltr">seguindo_artistas</text></g><g transform="translate(1831.2274531024532 581.2150072150065) rotate(0 117.5 12)"><text x="0" y="19" font-family="Cascadia, Segoe UI Emoji" font-size="20px" fill="#2b8a3e" text-anchor="start" style="white-space: pre;" direction="ltr">seguindo_artistas_id</text></g><g stroke-linecap="round"><g transform="translate(2259.4523809523826 539.4285714285711) rotate(0 -72.02380952381009 44.28571428571414)"><path d="M0 0 C-24.01 14.76, -120.04 73.81, -144.05 88.57" stroke="#0b7285" stroke-width="2.5" fill="none" stroke-dasharray="8 10"></path></g></g><g transform="translate(1875.2274531024532 634.131673881673) rotate(0 59 12)"><text x="0" y="19" font-family="Cascadia, Segoe UI Emoji" font-size="20px" fill="#c92a2a" text-anchor="start" style="white-space: pre;" direction="ltr">artista_id</text></g><g transform="translate(1875.2274531024532 679.131673881673) rotate(0 59 12)"><text x="0" y="19" font-family="Cascadia, Segoe UI Emoji" font-size="20px" fill="#c92a2a" text-anchor="start" style="white-space: pre;" direction="ltr">usuario_id</text></g><g stroke-linecap="round"><g transform="translate(1770.2857142857129 635.2619047619046) rotate(0 -82.85714285714334 -49.88095238095256)"><path d="M0 0 C-27.62 -16.63, -138.1 -83.13, -165.71 -99.76" stroke="#0b7285" stroke-width="2.5" fill="none" stroke-dasharray="8 10"></path></g></g><g transform="translate(1430.8941197691192 428.2983405483395) rotate(0 47.5 12)"><text x="0" y="19" font-family="Cascadia, Segoe UI Emoji" font-size="20px" fill="#c92a2a" text-anchor="start" style="white-space: pre;" direction="ltr">plano_id</text></g><g transform="translate(1369.2274531024527 479.96500721500615) rotate(0 106 12)"><text x="0" y="19" font-family="Cascadia, Segoe UI Emoji" font-size="20px" fill="#000000" text-anchor="start" style="white-space: pre;" direction="ltr">data_de_assinatura</text></g><g transform="translate(2330.8941197691192 971.6316738816713) rotate(0 100 12)"><text x="0" y="19" font-family="Cascadia, Segoe UI Emoji" font-size="20px" fill="#000000" text-anchor="start" style="white-space: pre;" direction="ltr">ano_de_lancamento</text></g></svg>